<svg xmlns="http://www.w3.org/2000/svg" version="1.1" xmlns:xlink="http://www.w3.org/1999/xlink" xmlns:svgjs="http://svgjs.dev/svgjs" width="1920" height="1080" preserveAspectRatio="none" viewBox="0 0 1920 1080"><g mask="url(&quot;#SvgjsMask1392&quot;)" fill="none"><rect width="1920" height="1080" x="0" y="0" fill="url(&quot;#SvgjsLinearGradient1393&quot;)"></rect><path d="M565.31 270C561.63 135.42 521.39 74.32 588.75 0C643.74 -60.68 699.38 0 810 0C945 0 945 0 1080 0C1142.03 0 1147.23 -18.63 1204.05 0C1282.23 25.63 1272.61 88.52 1350 88.52C1468.31 88.52 1472.06 40.45 1595.45 0C1607.06 -3.81 1607.72 0 1620 0C1755 0 1755 0 1890 0C2025 0 2092.5 -67.5 2160 0C2227.5 67.5 2160 135 2160 270C2160 306.82 2168.75 308.27 2160 343.64C2135.35 443.27 2093.2 442.43 2093.2 540C2093.2 628.18 2137.82 625.5 2160 715.14C2171.22 760.5 2160 762.57 2160 810C2160 945 2227.5 1012.5 2160 1080C2092.5 1147.5 2025 1080 1890 1080C1755 1080 1755 1080 1620 1080C1535.63 1080 1534.66 1087.82 1451.25 1080C1399.66 1075.16 1400.86 1066.37 1350 1054.69C1215.23 1023.74 1216.07 1018.6 1080 994.74C946.07 971.26 908.36 930.47 810 960C766.35 973.1 839.26 1060.76 795.97 1080C704.26 1120.76 667.99 1080 540 1080C405 1080 405 1080 270 1080C135 1080 67.5 1147.5 0 1080C-67.5 1012.5 0 945 0 810C0 675 0 675 0 540C0 405 -61.16 289.79 0 270C73.84 246.11 139.14 356.07 270 452.65C322.05 491.07 315.52 499.2 365.81 540C450.52 608.73 468.81 671.71 540 671.71C587.67 671.71 599.11 610.11 603.53 540C611.77 409.26 569.02 405.42 565.31 270" stroke="rgba(51, 121, 194, 0.58)" stroke-width="2"></path><path d="M1890 77.14C1843.77 77.14 1830 185.77 1830 270C1830 298.46 1857.78 302.53 1890 302.53C1958.83 302.53 2032.11 312.63 2032.11 270C2032.11 199.94 1944.83 77.14 1890 77.14" stroke="rgba(51, 121, 194, 0.58)" stroke-width="2"></path><path d="M1620 489.77C1591.91 489.77 1552.5 509.65 1552.5 540C1552.5 581.72 1594.47 633.91 1620 633.91C1641.55 633.91 1646.67 585.54 1646.67 540C1646.67 513.47 1638.99 489.77 1620 489.77" stroke="rgba(51, 121, 194, 0.58)" stroke-width="2"></path><path d="M270 725.63C238.85 725.63 202.5 777.78 202.5 810C202.5 831.22 236.74 832.5 270 832.5C296.45 832.5 321.92 829.43 321.92 810C321.92 775.99 298.56 725.63 270 725.63" stroke="rgba(51, 121, 194, 0.58)" stroke-width="2"></path><path d="M776.25 270C776.14 134.97 670.83 93.35 682.5 0C687.71 -41.65 746.25 0 810 0C919.28 0 1016.24 -55.5 1028.57 0C1046.24 79.5 875.65 132.67 870 270C864.54 402.67 950.26 400.24 1006.36 540C1055.26 661.81 1007.91 791.46 1080 793.13C1179.73 795.43 1225.47 543.54 1350 547.94C1464.07 551.97 1557.21 695.17 1557.21 810C1557.21 895.81 1458.25 947.61 1350 949.22C1219.65 951.16 1214.84 883.48 1080 817.11C1073.41 813.87 1074.05 812.48 1067.14 810C939.05 763.93 916.21 794.64 810 720C724.11 659.64 690.29 637.97 682.94 540C673.41 412.97 776.36 404.97 776.25 270" stroke="rgba(51, 121, 194, 0.58)" stroke-width="2"></path><path d="M1206 270C1206 212.39 1272.87 214.42 1350 199.18C1479.87 173.51 1500.04 162.44 1620 188.18C1665.04 197.85 1680 231.04 1680 270C1680 303.35 1654.3 306.38 1620 332.79C1489.3 433.44 1459.95 540.8 1350 524.12C1252.95 509.4 1206 374.86 1206 270" stroke="rgba(51, 121, 194, 0.58)" stroke-width="2"></path><path d="M0 402.35C54.26 402.35 175.5 463.57 175.5 540C175.5 629.9 50.34 735 0 735C-37.41 735 0 637.5 0 540C0 471.17 -33.49 402.35 0 402.35" stroke="rgba(51, 121, 194, 0.58)" stroke-width="2"></path><path d="M1730 540C1750.02 445.2 1813.51 383.86 1890 383.86C1960.31 383.86 2006.64 448.95 2023.61 540C2046.35 662.02 1929.92 714.12 1969.41 810C1998.11 879.69 2113.37 805.07 2160 871.13C2208.66 940.07 2210.78 1026.35 2160 1080C2111.94 1130.78 2026.98 1128.5 1962.32 1080C1891.98 1027.25 1943.28 966.13 1890 877.5C1862.12 831.13 1822.99 858.5 1800 810C1742.99 689.75 1705.02 658.27 1730 540" stroke="rgba(51, 121, 194, 0.58)" stroke-width="2"></path><path d="M0 1002.86C105.52 950.1 139.04 986.73 270 945C409.04 900.69 431.82 797.45 540 830.77C650.97 864.95 708.31 1000.1 708.31 1080C708.31 1124.72 624.15 1080 540 1080C405 1080 405 1080 270 1080C135 1080 105 1110 0 1080C-30 1071.43 -29.48 1017.6 0 1002.86" stroke="rgba(51, 121, 194, 0.58)" stroke-width="2"></path><path d="M810 81C788.54 81 776.25 29.25 776.25 0C776.25 -11.25 793.13 0 810 0C838.93 0 867.86 -14.89 867.86 0C867.86 25.61 834.34 81 810 81" stroke="rgba(51, 121, 194, 0.58)" stroke-width="2"></path><path d="M0 534.71C2.09 534.71 6.75 537.06 6.75 540C6.75 543.46 1.94 547.5 0 547.5C-1.44 547.5 0 543.75 0 540C0 537.36 -1.29 534.71 0 534.71" stroke="rgba(51, 121, 194, 0.58)" stroke-width="2"></path><path d="M762.35 540C762.35 486.31 781.13 427.5 810 427.5C841.77 427.5 883.64 488.36 883.64 540C883.64 578.36 843.19 607.5 810 607.5C782.55 607.5 762.35 576.31 762.35 540" stroke="rgba(51, 121, 194, 0.58)" stroke-width="2"></path><path d="M1813.33 540C1813.33 496.61 1853.35 465.18 1890 465.18C1923.69 465.18 1954.02 497.91 1954.02 540C1954.02 607.53 1924.57 684.42 1890 684.42C1854.22 684.42 1813.33 606.23 1813.33 540" stroke="rgba(51, 121, 194, 0.58)" stroke-width="2"></path><path d="M1282.5 810C1282.5 783.19 1318.58 746.47 1350 746.47C1377.45 746.47 1400.23 782.16 1400.23 810C1400.23 830.8 1376.2 843.75 1350 843.75C1317.33 843.75 1282.5 831.83 1282.5 810" stroke="rgba(51, 121, 194, 0.58)" stroke-width="2"></path><path d="M218.08 1080C218.08 1074.13 243.48 1067.34 270 1057.5C404.44 1007.63 423.3 953.09 540 960.58C598.62 964.34 620.65 1041.72 620.65 1080C620.65 1101.43 580.33 1080 540 1080C405 1080 405 1080 270 1080C244.04 1080 218.08 1085.38 218.08 1080" stroke="rgba(51, 121, 194, 0.58)" stroke-width="2"></path><path d="M2082.86 1080C2082.86 1055.85 2137.66 998.49 2160 998.49C2176.23 998.49 2179.82 1059.06 2160 1080C2141.25 1099.82 2082.86 1096.6 2082.86 1080" stroke="rgba(51, 121, 194, 0.58)" stroke-width="2"></path></g><defs><mask id="SvgjsMask1392"><rect width="1920" height="1080" fill="#ffffff"></rect></mask><linearGradient x1="89.06%" y1="119.44%" x2="10.94%" y2="-19.44%" gradientUnits="userSpaceOnUse" id="SvgjsLinearGradient1393"><stop stop-color="#0e2a47" offset="0"></stop><stop stop-color="rgba(0, 74, 170, 1)" offset="1"></stop></linearGradient></defs></svg>